<?xml version="1.0" encoding="UTF-8"?>
<svg xmlns="http://www.w3.org/2000/svg" width="216" height="216" xmlns:xlink="http://www.w3.org/1999/xlink" viewBox="0 0 216 216">
  <defs>
    <style>
      .cls-1 {
        fill: none;
      }

      .cls-2 {
        mix-blend-mode: multiply;
        opacity: .2;
      }

      .cls-3 {
        fill: url(#linear-gradient);
      }

      .cls-4 {
        isolation: isolate;
      }

      .cls-5 {
        fill: #fff;
      }
    </style>
    <linearGradient id="linear-gradient" x1="128.241" y1="222.795" x2="86.274" y2="-15.212" gradientUnits="userSpaceOnUse">
      <stop offset="0" stop-color="#3cb17e"/>
      <stop offset=".431" stop-color="#2f8b63"/>
      <stop offset=".783" stop-color="#277252"/>
      <stop offset="1" stop-color="#246a4c"/>
    </linearGradient>
  </defs>
  <g class="cls-4">
    <g id="art_outlined" data-name="art outlined">
      <g>
        <path class="cls-3" d="M0,216V0h216v162c0,29.823-24.177,54-54,54H0Z"/>
        <g class="cls-2">
          <rect x="110.475" y="104.322" width="30.789" height="19.714"/>
          <rect x="71.093" y="132.629" width="30.789" height="19.714"/>
          <rect x="149.858" y="132.629" width="30.789" height="19.714"/>
          <rect x="110.475" y="160.937" width="30.789" height="19.714"/>
          <path d="M164.012,104.322c9.187,0,16.635,7.448,16.635,16.635v3.079h-30.789v-19.714h14.154Z"/>
          <path d="M149.858,180.651v-19.714h30.789v3.079c0,9.187-7.448,16.635-16.635,16.635h-14.154Z"/>
          <path d="M71.093,120.957c0-9.187,7.448-16.635,16.635-16.635h14.154v19.714h-30.789v-3.079Z"/>
          <path d="M87.728,180.651c-9.187,0-16.635-7.448-16.635-16.635v-3.079h30.789v19.714h-14.154Z"/>
        </g>
        <g>
          <path class="cls-5" d="M22.288,152.757c-2.149,0-3.505,1.101-3.505,2.585-.009,1.672,1.808,2.312,3.173,2.661l1.706.443c2.218.546,5.024,1.766,5.024,4.913,0,2.96-2.363,5.118-6.465,5.118-3.916,0-6.363-1.953-6.534-5.118h2.644c.153,1.902,1.842,2.807,3.873,2.807,2.243,0,3.872-1.126,3.872-2.832,0-1.553-1.441-2.167-3.309-2.661l-2.064-.563c-2.806-.759-4.546-2.184-4.546-4.614,0-3.011,2.687-5.016,6.193-5.016,3.548,0,6.022,2.03,6.099,4.828h-2.542c-.188-1.612-1.612-2.551-3.617-2.551Z"/>
          <path class="cls-5" d="M30.923,161.722c0-4.026,2.405-6.807,6.056-6.807,2.968,0,5.8,1.851,5.8,6.585v.904h-9.314c.068,2.524,1.535,3.94,3.719,3.94,1.45,0,2.559-.631,3.02-1.868l2.414.436c-.58,2.132-2.602,3.54-5.459,3.54-3.864,0-6.235-2.662-6.235-6.73ZM40.28,160.493c-.008-2.004-1.305-3.472-3.284-3.472-2.073,0-3.42,1.612-3.523,3.472h6.807Z"/>
          <path class="cls-5" d="M44.915,161.696c0-4.001,2.388-6.781,6.082-6.781,2.977,0,5.135,1.757,5.408,4.401h-2.482c-.273-1.229-1.262-2.252-2.883-2.252-2.132,0-3.548,1.766-3.548,4.572,0,2.857,1.391,4.657,3.548,4.657,1.459,0,2.559-.836,2.883-2.252h2.482c-.281,2.55-2.286,4.41-5.382,4.41-3.805,0-6.107-2.807-6.107-6.756Z"/>
          <path class="cls-5" d="M67.325,155.086h2.559v13.102h-2.508v-2.27h-.136c-.606,1.399-1.945,2.439-3.916,2.439-2.516,0-4.299-1.688-4.299-4.938v-8.333h2.55v8.026c0,1.782,1.092,2.926,2.67,2.926,1.433,0,3.088-1.058,3.079-3.284v-7.668Z"/>
          <path class="cls-5" d="M73.188,155.086h2.465v2.081h.136c.478-1.407,1.792-2.277,3.327-2.277.324,0,.827.025,1.083.06v2.439c-.205-.06-.802-.153-1.331-.153-1.808,0-3.13,1.236-3.13,2.951v8.001h-2.55v-13.102Z"/>
          <path class="cls-5" d="M81.233,161.722c0-4.026,2.405-6.807,6.056-6.807,2.968,0,5.8,1.851,5.8,6.585v.904h-9.314c.068,2.524,1.535,3.94,3.719,3.94,1.45,0,2.559-.631,3.02-1.868l2.414.436c-.58,2.132-2.602,3.54-5.459,3.54-3.864,0-6.235-2.662-6.235-6.73ZM90.59,160.493c-.008-2.004-1.305-3.472-3.284-3.472-2.073,0-3.42,1.612-3.523,3.472h6.807Z"/>
          <path class="cls-5" d="M30.477,194.038h-2.422l-8.879-12.812h-.162v12.812h-2.636v-17.469h2.44l8.888,12.828h.162v-12.828h2.61v17.469Z"/>
          <path class="cls-5" d="M33.407,187.572c0-4.026,2.405-6.807,6.056-6.807,2.968,0,5.8,1.851,5.8,6.585v.904h-9.314c.068,2.524,1.535,3.94,3.719,3.94,1.45,0,2.559-.631,3.02-1.868l2.414.436c-.58,2.132-2.602,3.54-5.459,3.54-3.864,0-6.235-2.662-6.235-6.73ZM42.764,186.344c-.008-2.004-1.305-3.472-3.284-3.472-2.073,0-3.42,1.612-3.523,3.472h6.807Z"/>
          <path class="cls-5" d="M54.102,182.983h-2.687v7.208c0,1.476.742,1.748,1.569,1.748.409,0,.725-.077.896-.11l.46,2.106c-.298.11-.844.265-1.654.272-2.013.043-3.83-1.108-3.821-3.488v-7.736h-1.919v-2.047h1.919v-3.139h2.55v3.139h2.687v2.047Z"/>
          <path class="cls-5" d="M55.784,180.937h2.636l2.567,9.621h.128l2.576-9.621h2.636l2.559,9.578h.128l2.551-9.578h2.635l-3.847,13.102h-2.602l-2.661-9.46h-.196l-2.661,9.46h-2.593l-3.855-13.102Z"/>
          <path class="cls-5" d="M75.509,187.547c0-4.077,2.414-6.781,6.107-6.781s6.107,2.704,6.107,6.781c0,4.052-2.414,6.756-6.107,6.756s-6.107-2.704-6.107-6.756ZM85.148,187.538c0-2.508-1.126-4.64-3.523-4.64-2.414,0-3.54,2.132-3.54,4.64s1.126,4.623,3.54,4.623c2.397,0,3.523-2.106,3.523-4.623Z"/>
          <path class="cls-5" d="M90.448,180.937h2.465v2.081h.136c.478-1.407,1.792-2.277,3.327-2.277.324,0,.827.025,1.083.06v2.439c-.205-.06-.802-.153-1.331-.153-1.808,0-3.13,1.236-3.13,2.951v8.001h-2.55v-13.102Z"/>
          <path class="cls-5" d="M99.559,176.569h2.55v9.911h.222l5.22-5.544h3.054l-5.305,5.621,5.664,7.48h-3.13l-4.453-5.92-1.271,1.271v4.648h-2.55v-17.469Z"/>
          <path class="cls-5" d="M112.484,177.396c0-.836.725-1.526,1.612-1.526.878,0,1.612.69,1.612,1.526s-.734,1.519-1.612,1.519c-.887,0-1.612-.683-1.612-1.519ZM112.809,180.937h2.55v13.102h-2.55v-13.102Z"/>
          <path class="cls-5" d="M121.219,194.038h-2.55v-13.102h2.448v2.132h.162c.605-1.39,1.894-2.303,3.864-2.303,2.678,0,4.461,1.697,4.461,4.938v8.334h-2.55v-8.026c0-1.902-1.049-3.037-2.781-3.037-1.774,0-3.054,1.194-3.054,3.284v7.779Z"/>
          <path class="cls-5" d="M132.823,196.256l2.192-.904c.452.75,1.28,1.816,3.404,1.816,1.936,0,3.343-.887,3.343-2.942v-2.576h-.162c-.46.836-1.39,2.192-3.795,2.192-3.096,0-5.476-2.227-5.476-6.406s2.329-6.67,5.493-6.67c2.439,0,3.343,1.484,3.795,2.295h.188v-2.124h2.499v13.392c0,3.369-2.576,4.896-5.911,4.896-3.13,0-4.879-1.364-5.57-2.968ZM141.788,187.401c0-2.652-1.194-4.469-3.42-4.469-2.303,0-3.463,1.953-3.463,4.469,0,2.576,1.186,4.325,3.463,4.325,2.201,0,3.42-1.621,3.42-4.325Z"/>
        </g>
        <g>
          <g>
            <rect class="cls-5" x="51.286" y="15.953" width="8.322" height="5.329"/>
            <rect class="cls-5" x="40.642" y="23.604" width="8.322" height="5.329"/>
            <rect class="cls-5" x="61.931" y="23.604" width="8.322" height="5.329"/>
            <rect class="cls-5" x="51.286" y="31.255" width="8.322" height="5.329"/>
            <path class="cls-5" d="M65.757,15.953c2.483,0,4.496,2.013,4.496,4.496v.832h-8.322v-5.329h3.826Z"/>
            <path class="cls-5" d="M61.931,36.584v-5.329h8.322v.832c0,2.483-2.013,4.496-4.496,4.496h-3.826Z"/>
            <path class="cls-5" d="M40.642,20.449c0-2.483,2.013-4.496,4.496-4.496h3.826v5.329h-8.322v-.832Z"/>
            <path class="cls-5" d="M45.138,36.584c-2.483,0-4.496-2.013-4.496-4.496v-.832h8.322v5.329h-3.826Z"/>
          </g>
          <g>
            <path class="cls-5" d="M96.923,21.506c0-3.067-2.487-5.554-5.554-5.554h-17.173v20.631h5.037v-7.336h11.242c.629,0,1.14.51,1.14,1.14v6.196h5.037v-6.196c0-1.121-.576-2.106-1.448-2.678,1.059-1.011,1.72-2.436,1.72-4.016v-2.187ZM91.887,23.677c0,.629-.51,1.14-1.14,1.14h-11.514v-4.433h11.514c.629,0,1.14.51,1.14,1.14v2.153Z"/>
            <path class="cls-5" d="M148.19,15.952h-17.206s-.005,0-.005,0v20.631h5.037v-16.2h11.552c.629,0,1.14.51,1.14,1.14v15.06h5.037v-15.077c0-3.067-2.487-5.554-5.554-5.554Z"/>
            <polygon class="cls-5" points="122.037 36.583 127.074 36.583 127.074 26.268 127.074 15.952 122.037 15.952 122.037 26.268 122.037 36.583"/>
            <polygon class="cls-5" points="119.485 15.952 108.378 15.952 99.168 15.952 99.168 20.384 104.989 20.384 104.989 36.583 110.026 36.583 110.026 20.384 119.485 20.384 119.485 15.952"/>
            <polygon class="cls-5" points="200.849 15.952 180.531 15.952 180.531 20.384 186.353 20.384 186.353 36.583 191.389 36.583 191.389 20.384 200.849 20.384 200.849 15.952"/>
            <polygon class="cls-5" points="162.69 32.152 162.69 28.45 175.768 28.45 175.768 24.019 162.69 24.019 162.69 20.384 177.971 20.384 177.971 15.952 157.653 15.952 157.653 36.583 178.246 36.583 178.246 32.152 162.69 32.152"/>
            <polygon class="cls-5" points="38.013 20.384 38.013 15.953 15.908 15.953 15.908 26.268 15.908 36.584 20.944 36.584 20.944 29.248 35.536 29.248 35.536 24.817 20.944 24.817 20.944 20.384 38.013 20.384"/>
          </g>
        </g>
        <rect class="cls-5" y="135.049" width="89.296" height="3.045"/>
        <g>
          <path class="cls-5" d="M27.653,55.345c-.281-1.919-1.74-3.088-3.762-3.088-2.704,0-4.478,2.073-4.478,5.707,0,3.736,1.8,5.707,4.453,5.707,1.97,0,3.438-1.075,3.787-2.943l3.736.017c-.401,3.216-3.104,6.192-7.583,6.192-4.674,0-8.137-3.275-8.137-8.973s3.522-8.973,8.137-8.973c4.043,0,7.097,2.32,7.583,6.354h-3.736Z"/>
          <path class="cls-5" d="M33.926,49.229h11.771v3.045h-8.078v4.163h7.472v3.045h-7.472v4.171h8.112v3.045h-11.805v-17.469Z"/>
          <path class="cls-5" d="M48.523,49.229h6.892c3.966,0,6.261,2.235,6.261,5.707,0,2.388-1.1,4.12-3.087,4.973l3.71,6.79h-4.077l-3.309-6.192h-2.696v6.192h-3.693v-17.469ZM54.725,57.537c2.115,0,3.147-.87,3.147-2.602,0-1.74-1.032-2.687-3.165-2.687h-2.491v5.289h2.508Z"/>
          <path class="cls-5" d="M63.505,49.229h14.347v3.045h-5.348v14.424h-3.65v-14.424h-5.348v-3.045Z"/>
          <path class="cls-5" d="M83.8,66.698h-3.693v-17.469h3.693v17.469Z"/>
          <path class="cls-5" d="M86.727,49.229h11.566v3.045h-7.873v4.163h7.105v3.045h-7.105v7.216h-3.693v-17.469Z"/>
          <path class="cls-5" d="M104.352,66.698h-3.693v-17.469h3.693v17.469Z"/>
          <path class="cls-5" d="M107.278,49.229h11.771v3.045h-8.078v4.163h7.472v3.045h-7.472v4.171h8.112v3.045h-11.805v-17.469Z"/>
          <path class="cls-5" d="M121.875,66.698v-17.469h6.244c5.271,0,8.495,3.275,8.495,8.717s-3.224,8.751-8.546,8.751h-6.193ZM127.915,63.533c3.284,0,5.016-1.689,5.016-5.587s-1.731-5.553-5.007-5.553h-2.354v11.14h2.346Z"/>
          <path class="cls-5" d="M22.467,77.929c-1.808,0-2.806.827-2.806,1.953-.025,1.254,1.245,1.817,2.764,2.167l1.569.375c3.037.682,5.229,2.226,5.237,5.135-.009,3.199-2.516,5.237-6.781,5.237-4.239,0-6.943-1.954-7.037-5.732h3.574c.119,1.749,1.501,2.635,3.42,2.635,1.876,0,3.088-.87,3.096-2.149-.008-1.177-1.066-1.723-2.968-2.184l-1.902-.478c-2.951-.708-4.768-2.184-4.759-4.759-.017-3.173,2.789-5.289,6.619-5.289,3.889,0,6.448,2.149,6.5,5.263h-3.54c-.136-1.373-1.22-2.175-2.985-2.175Z"/>
          <path class="cls-5" d="M39.461,92.787c-4.657,0-8.18-3.284-8.18-8.973s3.522-8.973,8.18-8.973c4.632,0,8.18,3.258,8.18,8.973s-3.548,8.973-8.18,8.973ZM39.461,78.107c-2.687,0-4.436,2.005-4.436,5.707s1.749,5.707,4.436,5.707,4.436-2.005,4.436-5.707-1.757-5.707-4.436-5.707Z"/>
          <path class="cls-5" d="M50.255,75.08h3.693v14.424h7.489v3.045h-11.183v-17.469Z"/>
          <path class="cls-5" d="M78.253,75.08v11.344c0,3.821-2.9,6.372-7.242,6.372s-7.242-2.551-7.242-6.372v-11.344h3.693v11.029c0,1.996,1.408,3.438,3.548,3.438s3.548-1.441,3.548-3.438v-11.029h3.693Z"/>
          <path class="cls-5" d="M80.509,75.08h14.347v3.045h-5.348v14.424h-3.65v-14.424h-5.348v-3.045Z"/>
          <path class="cls-5" d="M100.804,92.548h-3.693v-17.469h3.693v17.469Z"/>
          <path class="cls-5" d="M111.604,92.787c-4.657,0-8.18-3.284-8.18-8.973s3.522-8.973,8.18-8.973c4.632,0,8.18,3.258,8.18,8.973s-3.548,8.973-8.18,8.973ZM111.604,78.107c-2.687,0-4.436,2.005-4.436,5.707s1.749,5.707,4.436,5.707,4.436-2.005,4.436-5.707-1.757-5.707-4.436-5.707Z"/>
          <path class="cls-5" d="M137.009,92.548h-3.19l-7.6-10.995h-.128v10.995h-3.693v-17.469h3.242l7.54,10.986h.153v-10.986h3.676v17.469Z"/>
          <path class="cls-5" d="M22.467,103.78c-1.808,0-2.806.827-2.806,1.953-.025,1.254,1.245,1.817,2.764,2.167l1.569.375c3.037.682,5.229,2.226,5.237,5.135-.009,3.198-2.516,5.237-6.781,5.237-4.239,0-6.943-1.954-7.037-5.732h3.574c.119,1.749,1.501,2.636,3.42,2.636,1.876,0,3.088-.87,3.096-2.149-.008-1.177-1.066-1.723-2.968-2.184l-1.902-.478c-2.951-.708-4.768-2.184-4.759-4.76-.017-3.173,2.789-5.288,6.619-5.288,3.889,0,6.448,2.149,6.5,5.263h-3.54c-.136-1.373-1.22-2.175-2.985-2.175Z"/>
          <path class="cls-5" d="M31.588,100.931h6.892c3.966,0,6.261,2.448,6.261,5.919,0,3.489-2.337,5.886-6.354,5.886h-3.105v5.663h-3.693v-17.469ZM37.79,109.776c2.115,0,3.147-1.195,3.147-2.926s-1.032-2.9-3.165-2.9h-2.491v5.826h2.508Z"/>
          <path class="cls-5" d="M47.03,100.931h11.771v3.045h-8.078v4.163h7.472v3.045h-7.472v4.171h8.112v3.045h-11.805v-17.469Z"/>
          <path class="cls-5" d="M73.305,107.046c-.281-1.919-1.74-3.088-3.762-3.088-2.704,0-4.478,2.073-4.478,5.707,0,3.736,1.8,5.707,4.453,5.707,1.97,0,3.438-1.075,3.787-2.943l3.736.018c-.401,3.216-3.104,6.192-7.583,6.192-4.674,0-8.137-3.275-8.137-8.974s3.522-8.973,8.137-8.973c4.043,0,7.097,2.32,7.583,6.354h-3.736Z"/>
          <path class="cls-5" d="M83.271,118.399h-3.693v-17.469h3.693v17.469Z"/>
          <path class="cls-5" d="M85.251,118.399l6.031-17.469h4.759l6.022,17.469h-3.958l-1.296-3.983h-6.304l-1.296,3.983h-3.958ZM95.879,111.533l-2.149-6.611h-.136l-2.149,6.611h4.435Z"/>
          <path class="cls-5" d="M104.045,100.931h3.693v14.424h7.489v3.045h-11.183v-17.469Z"/>
          <path class="cls-5" d="M121.253,118.399h-3.693v-17.469h3.693v17.469Z"/>
          <path class="cls-5" d="M130.67,103.78c-1.808,0-2.806.827-2.806,1.953-.025,1.254,1.245,1.817,2.764,2.167l1.569.375c3.037.682,5.229,2.226,5.237,5.135-.009,3.198-2.516,5.237-6.781,5.237-4.239,0-6.943-1.954-7.037-5.732h3.574c.119,1.749,1.501,2.636,3.42,2.636,1.876,0,3.088-.87,3.096-2.149-.008-1.177-1.066-1.723-2.968-2.184l-1.902-.478c-2.951-.708-4.768-2.184-4.759-4.76-.017-3.173,2.789-5.288,6.619-5.288,3.889,0,6.448,2.149,6.5,5.263h-3.54c-.136-1.373-1.22-2.175-2.985-2.175Z"/>
          <path class="cls-5" d="M139.127,100.931h14.347v3.045h-5.348v14.424h-3.65v-14.424h-5.348v-3.045Z"/>
        </g>
        <rect class="cls-1" x="17.309" y="118.4" width="39.793" height="16.649"/>
        <rect class="cls-1" x="17.309" y="138.094" width="39.793" height="12.615"/>
      </g>
    </g>
  </g>
</svg>