<?xml version="1.0" encoding="UTF-8"?>
<svg xmlns="http://www.w3.org/2000/svg" width="216" height="216" xmlns:xlink="http://www.w3.org/1999/xlink" viewBox="0 0 216 216">
  <defs>
    <style>
      .cls-1 {
        mix-blend-mode: multiply;
        opacity: .2;
      }

      .cls-2 {
        fill: url(#linear-gradient);
      }

      .cls-3 {
        isolation: isolate;
      }

      .cls-4 {
        fill: #fff;
      }
    </style>
    <linearGradient id="linear-gradient" x1="128.241" y1="222.795" x2="86.274" y2="-15.212" gradientUnits="userSpaceOnUse">
      <stop offset="0" stop-color="#da291c"/>
      <stop offset=".129" stop-color="#cb261a"/>
      <stop offset=".509" stop-color="#a41f15"/>
      <stop offset=".813" stop-color="#8b1a12"/>
      <stop offset="1" stop-color="#831911"/>
    </linearGradient>
  </defs>
  <g class="cls-3">
    <g id="art_outlined" data-name="art outlined">
      <g>
        <path class="cls-2" d="M0,216V0h216v162c0,29.823-24.177,54-54,54H0Z"/>
        <g class="cls-1">
          <rect x="110.475" y="104.322" width="30.789" height="19.714"/>
          <rect x="71.093" y="132.629" width="30.789" height="19.714"/>
          <rect x="149.858" y="132.629" width="30.789" height="19.714"/>
          <rect x="110.475" y="160.937" width="30.789" height="19.714"/>
          <path d="M164.012,104.322c9.187,0,16.635,7.448,16.635,16.635v3.079h-30.789v-19.714h14.154Z"/>
          <path d="M149.858,180.651v-19.714h30.789v3.079c0,9.187-7.448,16.635-16.635,16.635h-14.154Z"/>
          <path d="M71.093,120.957c0-9.187,7.448-16.635,16.635-16.635h14.154v19.714h-30.789v-3.079Z"/>
          <path d="M87.728,180.651c-9.187,0-16.635-7.448-16.635-16.635v-3.079h30.789v19.714h-14.154Z"/>
        </g>
        <rect class="cls-4" y="109.184" width="89.296" height="3.045"/>
        <g>
          <path class="cls-4" d="M27.652,55.345c-.281-1.919-1.739-3.088-3.762-3.088-2.703,0-4.478,2.073-4.478,5.707,0,3.736,1.8,5.707,4.452,5.707,1.971,0,3.438-1.075,3.787-2.943l3.736.017c-.4,3.216-3.104,6.192-7.582,6.192-4.675,0-8.138-3.275-8.138-8.973s3.522-8.973,8.138-8.973c4.043,0,7.096,2.32,7.582,6.354h-3.736Z"/>
          <path class="cls-4" d="M33.926,49.229h11.771v3.045h-8.078v4.163h7.473v3.045h-7.473v4.171h8.112v3.045h-11.806v-17.469Z"/>
          <path class="cls-4" d="M48.523,49.229h6.893c3.966,0,6.26,2.235,6.26,5.707,0,2.388-1.1,4.12-3.087,4.973l3.71,6.79h-4.077l-3.31-6.192h-2.695v6.192h-3.693v-17.469ZM54.725,57.537c2.115,0,3.147-.87,3.147-2.602,0-1.74-1.032-2.687-3.165-2.687h-2.49v5.289h2.508Z"/>
          <path class="cls-4" d="M63.505,49.229h14.347v3.045h-5.348v14.424h-3.65v-14.424h-5.349v-3.045Z"/>
          <path class="cls-4" d="M83.801,66.698h-3.693v-17.469h3.693v17.469Z"/>
          <path class="cls-4" d="M86.727,49.229h11.566v3.045h-7.873v4.163h7.105v3.045h-7.105v7.216h-3.693v-17.469Z"/>
          <path class="cls-4" d="M104.352,66.698h-3.693v-17.469h3.693v17.469Z"/>
          <path class="cls-4" d="M107.278,49.229h11.771v3.045h-8.077v4.163h7.472v3.045h-7.472v4.171h8.112v3.045h-11.806v-17.469Z"/>
          <path class="cls-4" d="M121.875,66.698v-17.469h6.244c5.271,0,8.496,3.275,8.496,8.717s-3.225,8.751-8.547,8.751h-6.193ZM127.914,63.533c3.285,0,5.016-1.689,5.016-5.587s-1.73-5.553-5.006-5.553h-2.355v11.14h2.346Z"/>
          <path class="cls-4" d="M15.916,75.08h6.621c3.811,0,6.014,2.448,6.014,5.919,0,3.489-2.244,5.886-6.104,5.886h-2.983v5.664h-3.548v-17.469ZM21.873,83.925c2.032,0,3.023-1.194,3.023-2.926s-.991-2.9-3.04-2.9h-2.393v5.826h2.409Z"/>
          <path class="cls-4" d="M30.395,75.08h6.62c3.811,0,6.015,2.235,6.015,5.707,0,2.388-1.057,4.12-2.967,4.973l3.564,6.79h-3.916l-3.18-6.192h-2.59v6.192h-3.547v-17.469ZM36.352,83.388c2.031,0,3.023-.87,3.023-2.602,0-1.74-.992-2.687-3.041-2.687h-2.393v5.289h2.41Z"/>
          <path class="cls-4" d="M52.633,92.787c-4.475,0-7.858-3.284-7.858-8.973s3.384-8.973,7.858-8.973c4.449,0,7.857,3.258,7.857,8.973s-3.408,8.973-7.857,8.973ZM52.633,78.107c-2.582,0-4.262,2.005-4.262,5.707s1.68,5.707,4.262,5.707,4.26-2.005,4.26-5.707-1.688-5.707-4.26-5.707Z"/>
          <path class="cls-4" d="M62.644,75.08h11.11v3.045h-7.562v4.163h6.826v3.045h-6.826v7.216h-3.548v-17.469Z"/>
          <path class="cls-4" d="M75.672,75.08h11.309v3.045h-7.76v4.163h7.178v3.045h-7.178v4.171h7.792v3.045h-11.341v-17.469Z"/>
          <path class="cls-4" d="M95.575,77.929c-1.737,0-2.696.827-2.696,1.953-.024,1.254,1.197,1.817,2.655,2.167l1.507.375c2.918.682,5.023,2.226,5.031,5.135-.008,3.199-2.416,5.237-6.514,5.237-4.072,0-6.67-1.954-6.76-5.732h3.434c.114,1.749,1.441,2.635,3.285,2.635,1.803,0,2.967-.87,2.975-2.149-.008-1.177-1.024-1.723-2.852-2.184l-1.827-.478c-2.835-.708-4.581-2.184-4.572-4.759-.017-3.173,2.679-5.289,6.358-5.289,3.736,0,6.195,2.149,6.244,5.263h-3.4c-.131-1.373-1.172-2.175-2.868-2.175Z"/>
          <path class="cls-4" d="M110.218,77.929c-1.737,0-2.696.827-2.696,1.953-.024,1.254,1.197,1.817,2.655,2.167l1.507.375c2.918.682,5.023,2.226,5.031,5.135-.008,3.199-2.416,5.237-6.514,5.237-4.072,0-6.67-1.954-6.76-5.732h3.434c.114,1.749,1.441,2.635,3.285,2.635,1.803,0,2.967-.87,2.975-2.149-.008-1.177-1.024-1.723-2.852-2.184l-1.827-.478c-2.835-.708-4.581-2.184-4.572-4.759-.017-3.173,2.679-5.289,6.358-5.289,3.736,0,6.195,2.149,6.244,5.263h-3.4c-.131-1.373-1.172-2.175-2.868-2.175Z"/>
          <path class="cls-4" d="M122.172,92.548h-3.548v-17.469h3.548v17.469Z"/>
          <path class="cls-4" d="M132.195,92.787c-4.473,0-7.857-3.284-7.857-8.973s3.385-8.973,7.857-8.973c4.449,0,7.858,3.258,7.858,8.973s-3.409,8.973-7.858,8.973ZM132.195,78.107c-2.58,0-4.26,2.005-4.26,5.707s1.68,5.707,4.26,5.707,4.262-2.005,4.262-5.707-1.688-5.707-4.262-5.707Z"/>
          <path class="cls-4" d="M156.244,92.548h-3.064l-7.301-10.995h-.123v10.995h-3.549v-17.469h3.114l7.243,10.986h.148v-10.986h3.531v17.469Z"/>
          <path class="cls-4" d="M157.791,92.548l5.794-17.469h4.572l5.784,17.469h-3.801l-1.246-3.983h-6.055l-1.246,3.983h-3.803ZM168.002,85.682l-2.065-6.611h-.132l-2.064,6.611h4.262Z"/>
          <path class="cls-4" d="M175.488,75.08h3.549v14.424h7.193v3.045h-10.742v-17.469Z"/>
        </g>
        <g>
          <path class="cls-4" d="M28.225,130.534c-.436-2.26-2.303-3.514-4.529-3.514-3.012,0-5.264,2.329-5.264,6.568,0,4.273,2.262,6.568,5.255,6.568,2.21,0,4.086-1.229,4.538-3.463l2.661.008c-.571,3.455-3.378,5.86-7.216,5.86-4.538,0-7.855-3.386-7.855-8.973s3.334-8.973,7.855-8.973c3.693,0,6.619,2.184,7.216,5.919h-2.661Z"/>
          <path class="cls-4" d="M36.271,142.322h-2.551v-17.469h2.551v17.469Z"/>
          <path class="cls-4" d="M38.994,135.831c0-4.077,2.414-6.781,6.107-6.781s6.106,2.704,6.106,6.781c0,4.052-2.414,6.756-6.106,6.756s-6.107-2.704-6.107-6.756ZM48.633,135.822c0-2.508-1.127-4.64-3.523-4.64-2.414,0-3.54,2.132-3.54,4.64s1.126,4.623,3.54,4.623c2.396,0,3.523-2.107,3.523-4.623Z"/>
          <path class="cls-4" d="M62.231,129.22h2.56v13.102h-2.508v-2.269h-.137c-.605,1.399-1.945,2.439-3.916,2.439-2.516,0-4.299-1.688-4.299-4.938v-8.333h2.551v8.026c0,1.783,1.092,2.926,2.67,2.926,1.434,0,3.088-1.058,3.079-3.284v-7.668Z"/>
          <path class="cls-4" d="M67.523,135.796c0-4.248,2.328-6.747,5.492-6.747,2.439,0,3.311,1.484,3.771,2.294h.153v-6.491h2.551v17.469h-2.49v-2.039h-.214c-.46.836-1.399,2.294-3.787,2.294-3.182,0-5.476-2.542-5.476-6.781ZM76.982,135.771c0-2.738-1.194-4.555-3.42-4.555-2.304,0-3.464,1.953-3.464,4.555,0,2.627,1.187,4.632,3.464,4.632,2.2,0,3.42-1.877,3.42-4.632Z"/>
          <path class="cls-4" d="M95.367,126.892c-2.148,0-3.505,1.1-3.505,2.584-.009,1.672,1.808,2.312,3.173,2.661l1.706.444c2.218.546,5.024,1.766,5.024,4.913,0,2.959-2.363,5.118-6.466,5.118-3.915,0-6.363-1.953-6.534-5.118h2.645c.153,1.902,1.842,2.806,3.873,2.806,2.242,0,3.871-1.126,3.871-2.832,0-1.552-1.441-2.167-3.309-2.661l-2.064-.563c-2.807-.759-4.547-2.184-4.547-4.615,0-3.011,2.688-5.015,6.193-5.015,3.549,0,6.021,2.03,6.099,4.828h-2.542c-.188-1.612-1.612-2.55-3.617-2.55Z"/>
          <path class="cls-4" d="M104.004,135.856c0-4.026,2.404-6.807,6.056-6.807,2.968,0,5.8,1.851,5.8,6.584v.904h-9.314c.068,2.525,1.535,3.941,3.719,3.941,1.451,0,2.56-.631,3.02-1.868l2.414.435c-.58,2.132-2.602,3.54-5.459,3.54-3.863,0-6.234-2.662-6.234-6.73ZM113.36,134.628c-.009-2.004-1.306-3.472-3.284-3.472-2.072,0-3.42,1.612-3.522,3.472h6.807Z"/>
          <path class="cls-4" d="M117.994,135.831c0-4,2.389-6.781,6.082-6.781,2.977,0,5.135,1.757,5.408,4.401h-2.482c-.273-1.228-1.262-2.251-2.883-2.251-2.133,0-3.549,1.766-3.549,4.572,0,2.857,1.391,4.657,3.549,4.657,1.459,0,2.559-.836,2.883-2.252h2.482c-.281,2.55-2.286,4.41-5.383,4.41-3.805,0-6.107-2.807-6.107-6.756Z"/>
          <path class="cls-4" d="M140.404,129.22h2.56v13.102h-2.508v-2.269h-.136c-.606,1.399-1.945,2.439-3.916,2.439-2.516,0-4.299-1.688-4.299-4.938v-8.333h2.551v8.026c0,1.783,1.092,2.926,2.67,2.926,1.433,0,3.088-1.058,3.078-3.284v-7.668Z"/>
          <path class="cls-4" d="M146.268,129.22h2.466v2.081h.136c.479-1.407,1.792-2.277,3.327-2.277.324,0,.827.026,1.083.06v2.44c-.205-.06-.802-.154-1.33-.154-1.809,0-3.131,1.237-3.131,2.951v8.001h-2.551v-13.102Z"/>
          <path class="cls-4" d="M155.055,125.68c0-.835.726-1.526,1.613-1.526.878,0,1.611.691,1.611,1.526s-.733,1.519-1.611,1.519c-.888,0-1.613-.683-1.613-1.519ZM155.379,129.22h2.551v13.102h-2.551v-13.102Z"/>
          <path class="cls-4" d="M167.355,131.267h-2.687v7.208c0,1.476.741,1.749,1.569,1.749.409,0,.725-.077.896-.111l.46,2.106c-.298.111-.844.265-1.654.273-2.013.043-3.83-1.109-3.82-3.488v-7.737h-1.92v-2.047h1.92v-3.139h2.55v3.139h2.687v2.047Z"/>
          <path class="cls-4" d="M169.924,146.954l.615-2.09c1.398.384,2.311.239,2.959-1.501l.316-.87-4.795-13.272h2.73l3.318,10.167h.136l3.318-10.167h2.737l-5.398,14.85c-.76,2.064-2.09,3.165-4.197,3.165-.768,0-1.433-.145-1.74-.281Z"/>
        </g>
        <g>
          <g>
            <rect class="cls-4" x="51.286" y="15.953" width="8.322" height="5.329"/>
            <rect class="cls-4" x="40.642" y="23.604" width="8.322" height="5.329"/>
            <rect class="cls-4" x="61.931" y="23.604" width="8.322" height="5.329"/>
            <rect class="cls-4" x="51.286" y="31.255" width="8.322" height="5.329"/>
            <path class="cls-4" d="M65.757,15.953c2.483,0,4.496,2.013,4.496,4.496v.832h-8.322v-5.329h3.826Z"/>
            <path class="cls-4" d="M61.931,36.584v-5.329h8.322v.832c0,2.483-2.013,4.496-4.496,4.496h-3.826Z"/>
            <path class="cls-4" d="M40.642,20.449c0-2.483,2.013-4.496,4.496-4.496h3.826v5.329h-8.322v-.832Z"/>
            <path class="cls-4" d="M45.138,36.584c-2.483,0-4.496-2.013-4.496-4.496v-.832h8.322v5.329h-3.826Z"/>
          </g>
          <g>
            <path class="cls-4" d="M96.923,21.506c0-3.067-2.487-5.554-5.554-5.554h-17.173v20.631h5.037v-7.336h11.242c.629,0,1.14.51,1.14,1.14v6.196h5.037v-6.196c0-1.121-.576-2.106-1.448-2.678,1.059-1.011,1.72-2.436,1.72-4.016v-2.187ZM91.887,23.677c0,.629-.51,1.14-1.14,1.14h-11.514v-4.433h11.514c.629,0,1.14.51,1.14,1.14v2.153Z"/>
            <path class="cls-4" d="M148.19,15.952h-17.206s-.005,0-.005,0v20.631h5.037v-16.2h11.552c.629,0,1.14.51,1.14,1.14v15.06h5.037v-15.077c0-3.067-2.487-5.554-5.554-5.554Z"/>
            <polygon class="cls-4" points="122.037 36.583 127.074 36.583 127.074 26.268 127.074 15.952 122.037 15.952 122.037 26.268 122.037 36.583"/>
            <polygon class="cls-4" points="119.485 15.952 108.378 15.952 99.168 15.952 99.168 20.384 104.989 20.384 104.989 36.583 110.026 36.583 110.026 20.384 119.485 20.384 119.485 15.952"/>
            <polygon class="cls-4" points="200.849 15.952 180.531 15.952 180.531 20.384 186.353 20.384 186.353 36.583 191.389 36.583 191.389 20.384 200.849 20.384 200.849 15.952"/>
            <polygon class="cls-4" points="162.69 32.152 162.69 28.45 175.768 28.45 175.768 24.019 162.69 24.019 162.69 20.384 177.971 20.384 177.971 15.952 157.653 15.952 157.653 36.583 178.246 36.583 178.246 32.152 162.69 32.152"/>
            <polygon class="cls-4" points="38.013 20.384 38.013 15.953 15.908 15.953 15.908 26.268 15.908 36.584 20.944 36.584 20.944 29.248 35.536 29.248 35.536 24.817 20.944 24.817 20.944 20.384 38.013 20.384"/>
          </g>
        </g>
      </g>
    </g>
  </g>
</svg>