<?xml version="1.0" encoding="UTF-8"?>
<svg xmlns="http://www.w3.org/2000/svg" width="216" height="216" xmlns:xlink="http://www.w3.org/1999/xlink" viewBox="0 0 216 216">
  <defs>
    <style>
      .cls-1 {
        mix-blend-mode: multiply;
        opacity: .3;
      }

      .cls-2 {
        fill: url(#linear-gradient);
      }

      .cls-3 {
        isolation: isolate;
      }

      .cls-4 {
        fill: #fff;
      }
    </style>
    <linearGradient id="linear-gradient" x1="128.241" y1="222.795" x2="86.274" y2="-15.212" gradientUnits="userSpaceOnUse">
      <stop offset="0" stop-color="#969696"/>
      <stop offset=".066" stop-color="#878787"/>
      <stop offset=".265" stop-color="#5f5f5f"/>
      <stop offset=".462" stop-color="#404040"/>
      <stop offset=".653" stop-color="#2a2a2a"/>
      <stop offset=".835" stop-color="#1d1d1d"/>
      <stop offset="1" stop-color="#191919"/>
    </linearGradient>
  </defs>
  <g class="cls-3">
    <g id="art_outlined" data-name="art outlined">
      <g>
        <path class="cls-2" d="M0,216V0h216v162c0,29.823-24.177,54-54,54H0Z"/>
        <g class="cls-1">
          <rect x="110.475" y="104.322" width="30.789" height="19.714"/>
          <rect x="71.093" y="132.629" width="30.789" height="19.714"/>
          <rect x="149.858" y="132.629" width="30.789" height="19.714"/>
          <rect x="110.475" y="160.937" width="30.789" height="19.714"/>
          <path d="M164.012,104.322c9.187,0,16.635,7.448,16.635,16.635v3.079h-30.789v-19.714h14.154Z"/>
          <path d="M149.858,180.651v-19.714h30.789v3.079c0,9.187-7.448,16.635-16.635,16.635h-14.154Z"/>
          <path d="M71.093,120.957c0-9.187,7.448-16.635,16.635-16.635h14.154v19.714h-30.789v-3.079Z"/>
          <path d="M87.728,180.651c-9.187,0-16.635-7.448-16.635-16.635v-3.079h30.789v19.714h-14.154Z"/>
        </g>
        <rect class="cls-4" y="109.184" width="89.296" height="3.045"/>
        <g>
          <path class="cls-4" d="M27.652,55.345c-.281-1.919-1.739-3.088-3.762-3.088-2.703,0-4.478,2.072-4.478,5.706,0,3.736,1.8,5.707,4.452,5.707,1.971,0,3.438-1.075,3.787-2.943l3.736.018c-.401,3.216-3.104,6.192-7.583,6.192-4.674,0-8.137-3.275-8.137-8.974s3.522-8.973,8.137-8.973c4.043,0,7.097,2.319,7.583,6.354h-3.736Z"/>
          <path class="cls-4" d="M33.926,49.229h11.771v3.045h-8.078v4.163h7.473v3.045h-7.473v4.171h8.112v3.045h-11.806v-17.469Z"/>
          <path class="cls-4" d="M48.523,49.229h6.892c3.967,0,6.261,2.235,6.261,5.707,0,2.388-1.1,4.119-3.087,4.973l3.71,6.789h-4.077l-3.31-6.192h-2.695v6.192h-3.693v-17.469ZM54.725,57.537c2.115,0,3.147-.87,3.147-2.602,0-1.74-1.032-2.688-3.165-2.688h-2.49v5.289h2.508Z"/>
          <path class="cls-4" d="M63.505,49.229h14.347v3.045h-5.349v14.424h-3.65v-14.424h-5.348v-3.045Z"/>
          <path class="cls-4" d="M83.8,66.697h-3.693v-17.469h3.693v17.469Z"/>
          <path class="cls-4" d="M86.727,49.229h11.566v3.045h-7.873v4.163h7.105v3.045h-7.105v7.216h-3.693v-17.469Z"/>
          <path class="cls-4" d="M104.352,66.697h-3.693v-17.469h3.693v17.469Z"/>
          <path class="cls-4" d="M107.278,49.229h11.771v3.045h-8.077v4.163h7.472v3.045h-7.472v4.171h8.111v3.045h-11.805v-17.469Z"/>
          <path class="cls-4" d="M121.875,66.697v-17.469h6.244c5.271,0,8.495,3.275,8.495,8.718s-3.224,8.751-8.546,8.751h-6.193ZM127.914,63.533c3.284,0,5.016-1.689,5.016-5.587s-1.731-5.553-5.007-5.553h-2.354v11.14h2.346Z"/>
          <path class="cls-4" d="M15.916,75.079h11.308v3.045h-7.76v4.163h7.178v3.045h-7.178v4.171h7.792v3.045h-11.34v-17.469Z"/>
          <path class="cls-4" d="M36.294,81.033h.131l3.401-5.954h4.007l-5.122,8.734,5.236,8.734h-4.08l-3.442-5.962h-.131l-3.441,5.962h-4.064l5.253-8.734-5.154-8.734h4.023l3.384,5.954Z"/>
          <path class="cls-4" d="M45.602,75.079h6.62c3.811,0,6.015,2.448,6.015,5.92s-2.245,5.886-6.104,5.886h-2.982v5.663h-3.548v-17.469ZM51.559,83.925c2.032,0,3.023-1.194,3.023-2.926,0-1.74-.991-2.9-3.04-2.9h-2.393v5.826h2.409Z"/>
          <path class="cls-4" d="M60.079,75.079h11.308v3.045h-7.76v4.163h7.179v3.045h-7.179v4.171h7.793v3.045h-11.341v-17.469Z"/>
          <path class="cls-4" d="M73.747,75.079h6.62c3.811,0,6.015,2.235,6.015,5.707,0,2.388-1.057,4.119-2.966,4.973l3.564,6.789h-3.917l-3.18-6.192h-2.589v6.192h-3.548v-17.469ZM79.704,83.388c2.032,0,3.023-.87,3.023-2.602,0-1.74-.991-2.688-3.04-2.688h-2.393v5.289h2.409Z"/>
          <path class="cls-4" d="M87.782,75.079h13.782v3.045h-5.138v14.424h-3.507v-14.424h-5.138v-3.045Z"/>
        </g>
        <g>
          <path class="cls-4" d="M28.225,130.533c-.436-2.26-2.304-3.514-4.529-3.514-3.012,0-5.264,2.328-5.264,6.567,0,4.273,2.261,6.568,5.255,6.568,2.209,0,4.086-1.229,4.538-3.463l2.661.008c-.572,3.455-3.378,5.86-7.217,5.86-4.537,0-7.855-3.387-7.855-8.974s3.335-8.973,7.855-8.973c3.693,0,6.619,2.184,7.217,5.919h-2.661Z"/>
          <path class="cls-4" d="M33.645,146.953l.614-2.09c1.398.384,2.312.239,2.96-1.501l.315-.87-4.794-13.272h2.729l3.318,10.168h.136l3.318-10.168h2.738l-5.399,14.851c-.759,2.064-2.09,3.164-4.196,3.164-.768,0-1.434-.145-1.74-.281Z"/>
          <path class="cls-4" d="M47.465,124.853h2.551v6.491h.153c.452-.811,1.33-2.294,3.762-2.294,3.164,0,5.501,2.499,5.501,6.746s-2.303,6.781-5.476,6.781c-2.389,0-3.327-1.458-3.787-2.294h-.214v2.038h-2.49v-17.469ZM53.385,140.402c2.277,0,3.472-2.005,3.472-4.632,0-2.602-1.16-4.555-3.472-4.555-2.227,0-3.421,1.817-3.421,4.555,0,2.755,1.229,4.632,3.421,4.632Z"/>
          <path class="cls-4" d="M61.585,135.856c0-4.026,2.405-6.807,6.057-6.807,2.968,0,5.8,1.851,5.8,6.584v.904h-9.314c.068,2.525,1.535,3.941,3.719,3.941,1.45,0,2.56-.632,3.02-1.868l2.414.435c-.58,2.133-2.602,3.54-5.459,3.54-3.864,0-6.235-2.661-6.235-6.729ZM70.942,134.628c-.009-2.005-1.306-3.472-3.284-3.472-2.072,0-3.42,1.612-3.522,3.472h6.807Z"/>
          <path class="cls-4" d="M76.165,129.22h2.465v2.081h.137c.478-1.407,1.791-2.277,3.326-2.277.324,0,.827.026,1.084.06v2.44c-.205-.061-.803-.154-1.331-.154-1.809,0-3.131,1.237-3.131,2.951v8.001h-2.55v-13.102Z"/>
          <path class="cls-4" d="M92.782,132.828c-.299-.879-1.032-1.757-2.618-1.757-1.45,0-2.542.716-2.533,1.723-.009.887.613,1.373,2.056,1.715l2.081.478c2.405.554,3.582,1.697,3.582,3.548,0,2.371-2.192,4.052-5.356,4.052-2.942,0-4.87-1.305-5.297-3.625l2.465-.375c.308,1.287,1.288,1.944,2.814,1.944,1.672,0,2.756-.793,2.756-1.809,0-.818-.589-1.382-1.852-1.663l-2.218-.486c-2.456-.546-3.582-1.782-3.582-3.642,0-2.32,2.099-3.881,5.058-3.881,2.832,0,4.428,1.33,4.956,3.369l-2.312.409Z"/>
          <path class="cls-4" d="M97.442,135.856c0-4.026,2.405-6.807,6.056-6.807,2.969,0,5.8,1.851,5.8,6.584v.904h-9.313c.067,2.525,1.535,3.941,3.719,3.941,1.45,0,2.559-.632,3.02-1.868l2.414.435c-.58,2.133-2.602,3.54-5.459,3.54-3.864,0-6.235-2.661-6.235-6.729ZM106.799,134.628c-.008-2.005-1.305-3.472-3.283-3.472-2.073,0-3.421,1.612-3.523,3.472h6.807Z"/>
          <path class="cls-4" d="M111.434,135.83c0-4,2.389-6.78,6.082-6.78,2.977,0,5.135,1.757,5.407,4.4h-2.481c-.273-1.228-1.263-2.251-2.884-2.251-2.132,0-3.548,1.766-3.548,4.571,0,2.857,1.391,4.657,3.548,4.657,1.459,0,2.56-.836,2.884-2.252h2.481c-.281,2.551-2.285,4.41-5.382,4.41-3.805,0-6.107-2.807-6.107-6.756Z"/>
          <path class="cls-4" d="M133.844,129.22h2.559v13.102h-2.508v-2.269h-.136c-.606,1.398-1.945,2.439-3.916,2.439-2.516,0-4.299-1.688-4.299-4.938v-8.334h2.551v8.026c0,1.783,1.092,2.926,2.67,2.926,1.433,0,3.088-1.058,3.079-3.284v-7.668Z"/>
          <path class="cls-4" d="M139.707,129.22h2.465v2.081h.137c.478-1.407,1.791-2.277,3.326-2.277.324,0,.827.026,1.084.06v2.44c-.205-.061-.803-.154-1.331-.154-1.809,0-3.131,1.237-3.131,2.951v8.001h-2.55v-13.102Z"/>
          <path class="cls-4" d="M148.494,125.68c0-.835.725-1.526,1.612-1.526.878,0,1.612.691,1.612,1.526s-.734,1.519-1.612,1.519c-.888,0-1.612-.683-1.612-1.519ZM148.818,129.22h2.55v13.102h-2.55v-13.102Z"/>
          <path class="cls-4" d="M160.795,131.267h-2.687v7.208c0,1.476.741,1.749,1.569,1.749.409,0,.725-.077.896-.111l.46,2.106c-.298.111-.844.265-1.654.273-2.013.043-3.83-1.109-3.821-3.488v-7.737h-1.919v-2.047h1.919v-3.139h2.551v3.139h2.687v2.047Z"/>
          <path class="cls-4" d="M163.363,146.953l.614-2.09c1.399.384,2.312.239,2.96-1.501l.315-.87-4.794-13.272h2.729l3.318,10.168h.137l3.318-10.168h2.737l-5.399,14.851c-.759,2.064-2.089,3.164-4.196,3.164-.768,0-1.433-.145-1.74-.281Z"/>
        </g>
        <g>
          <g>
            <rect class="cls-4" x="51.286" y="15.953" width="8.322" height="5.329"/>
            <rect class="cls-4" x="40.642" y="23.604" width="8.322" height="5.329"/>
            <rect class="cls-4" x="61.931" y="23.604" width="8.322" height="5.329"/>
            <rect class="cls-4" x="51.286" y="31.255" width="8.322" height="5.329"/>
            <path class="cls-4" d="M65.757,15.953c2.483,0,4.496,2.013,4.496,4.496v.832h-8.322v-5.329h3.826Z"/>
            <path class="cls-4" d="M61.931,36.584v-5.329h8.322v.832c0,2.483-2.013,4.496-4.496,4.496h-3.826Z"/>
            <path class="cls-4" d="M40.642,20.449c0-2.483,2.013-4.496,4.496-4.496h3.826v5.329h-8.322v-.832Z"/>
            <path class="cls-4" d="M45.138,36.584c-2.483,0-4.496-2.013-4.496-4.496v-.832h8.322v5.329h-3.826Z"/>
          </g>
          <g>
            <path class="cls-4" d="M96.923,21.506c0-3.067-2.487-5.554-5.554-5.554h-17.173v20.631h5.037v-7.336h11.242c.629,0,1.14.51,1.14,1.14v6.196h5.037v-6.196c0-1.121-.576-2.106-1.448-2.678,1.059-1.011,1.72-2.436,1.72-4.016v-2.187ZM91.887,23.677c0,.629-.51,1.14-1.14,1.14h-11.514v-4.433h11.514c.629,0,1.14.51,1.14,1.14v2.153Z"/>
            <path class="cls-4" d="M148.19,15.952h-17.206s-.005,0-.005,0v20.631h5.037v-16.2h11.552c.629,0,1.14.51,1.14,1.14v15.06h5.037v-15.077c0-3.067-2.487-5.554-5.554-5.554Z"/>
            <polygon class="cls-4" points="122.037 36.583 127.074 36.583 127.074 26.268 127.074 15.952 122.037 15.952 122.037 26.268 122.037 36.583"/>
            <polygon class="cls-4" points="119.485 15.952 108.378 15.952 99.168 15.952 99.168 20.384 104.989 20.384 104.989 36.583 110.026 36.583 110.026 20.384 119.485 20.384 119.485 15.952"/>
            <polygon class="cls-4" points="200.849 15.952 180.531 15.952 180.531 20.384 186.353 20.384 186.353 36.583 191.389 36.583 191.389 20.384 200.849 20.384 200.849 15.952"/>
            <polygon class="cls-4" points="162.69 32.152 162.69 28.45 175.768 28.45 175.768 24.019 162.69 24.019 162.69 20.384 177.971 20.384 177.971 15.952 157.653 15.952 157.653 36.583 178.246 36.583 178.246 32.152 162.69 32.152"/>
            <polygon class="cls-4" points="38.013 20.384 38.013 15.953 15.908 15.953 15.908 26.268 15.908 36.584 20.944 36.584 20.944 29.248 35.536 29.248 35.536 24.817 20.944 24.817 20.944 20.384 38.013 20.384"/>
          </g>
        </g>
      </g>
    </g>
  </g>
</svg>