<?xml version="1.0" encoding="UTF-8"?>
<svg xmlns="http://www.w3.org/2000/svg" width="216" height="216" xmlns:xlink="http://www.w3.org/1999/xlink" viewBox="0 0 216 216">
  <defs>
    <style>
      .cls-1 {
        mix-blend-mode: multiply;
        opacity: .2;
      }

      .cls-2 {
        fill: url(#linear-gradient);
      }

      .cls-3 {
        isolation: isolate;
      }

      .cls-4 {
        fill: #fff;
      }
    </style>
    <linearGradient id="linear-gradient" x1="128.241" y1="222.795" x2="86.274" y2="-15.212" gradientUnits="userSpaceOnUse">
      <stop offset="0" stop-color="#da291c"/>
      <stop offset=".129" stop-color="#cb261a"/>
      <stop offset=".509" stop-color="#a41f15"/>
      <stop offset=".813" stop-color="#8b1a12"/>
      <stop offset="1" stop-color="#831911"/>
    </linearGradient>
  </defs>
  <g class="cls-3">
    <g id="art_outlined" data-name="art outlined">
      <g>
        <path class="cls-2" d="M0,216V0h216v162c0,29.823-24.177,54-54,54H0Z"/>
        <g class="cls-1">
          <rect x="110.475" y="104.322" width="30.789" height="19.714"/>
          <rect x="71.093" y="132.629" width="30.789" height="19.714"/>
          <rect x="149.858" y="132.629" width="30.789" height="19.714"/>
          <rect x="110.475" y="160.937" width="30.789" height="19.714"/>
          <path d="M164.012,104.322c9.187,0,16.635,7.448,16.635,16.635v3.079h-30.789v-19.714h14.154Z"/>
          <path d="M149.858,180.651v-19.714h30.789v3.079c0,9.187-7.448,16.635-16.635,16.635h-14.154Z"/>
          <path d="M71.093,120.957c0-9.187,7.448-16.635,16.635-16.635h14.154v19.714h-30.789v-3.079Z"/>
          <path d="M87.728,180.651c-9.187,0-16.635-7.448-16.635-16.635v-3.079h30.789v19.714h-14.154Z"/>
        </g>
        <rect class="cls-4" y="109.184" width="89.296" height="3.045"/>
        <g>
          <path class="cls-4" d="M27.652,55.345c-.281-1.919-1.739-3.088-3.762-3.088-2.703,0-4.478,2.073-4.478,5.707,0,3.736,1.8,5.707,4.452,5.707,1.971,0,3.438-1.075,3.787-2.943l3.736.017c-.401,3.216-3.104,6.192-7.583,6.192-4.674,0-8.137-3.275-8.137-8.973s3.522-8.973,8.137-8.973c4.043,0,7.097,2.32,7.583,6.354h-3.736Z"/>
          <path class="cls-4" d="M33.926,49.229h11.771v3.045h-8.078v4.163h7.473v3.045h-7.473v4.171h8.112v3.045h-11.806v-17.469Z"/>
          <path class="cls-4" d="M48.523,49.229h6.892c3.967,0,6.261,2.235,6.261,5.707,0,2.388-1.1,4.12-3.087,4.973l3.71,6.79h-4.077l-3.31-6.192h-2.695v6.192h-3.693v-17.469ZM54.725,57.537c2.115,0,3.147-.87,3.147-2.602,0-1.74-1.032-2.687-3.165-2.687h-2.49v5.289h2.508Z"/>
          <path class="cls-4" d="M63.505,49.229h14.347v3.045h-5.349v14.424h-3.65v-14.424h-5.348v-3.045Z"/>
          <path class="cls-4" d="M83.8,66.698h-3.693v-17.469h3.693v17.469Z"/>
          <path class="cls-4" d="M86.727,49.229h11.566v3.045h-7.873v4.163h7.105v3.045h-7.105v7.216h-3.693v-17.469Z"/>
          <path class="cls-4" d="M104.352,66.698h-3.693v-17.469h3.693v17.469Z"/>
          <path class="cls-4" d="M107.278,49.229h11.771v3.045h-8.077v4.163h7.472v3.045h-7.472v4.171h8.111v3.045h-11.805v-17.469Z"/>
          <path class="cls-4" d="M121.875,66.698v-17.469h6.244c5.271,0,8.495,3.275,8.495,8.717s-3.224,8.751-8.546,8.751h-6.193ZM127.914,63.533c3.284,0,5.016-1.689,5.016-5.587s-1.731-5.553-5.007-5.553h-2.354v11.14h2.346Z"/>
          <path class="cls-4" d="M15.916,75.08h6.62c3.811,0,6.015,2.448,6.015,5.919,0,3.489-2.245,5.886-6.104,5.886h-2.982v5.664h-3.548v-17.469ZM21.873,83.925c2.032,0,3.023-1.194,3.023-2.926s-.991-2.9-3.04-2.9h-2.393v5.826h2.409Z"/>
          <path class="cls-4" d="M30.394,75.08h6.621c3.811,0,6.015,2.235,6.015,5.707,0,2.388-1.058,4.12-2.967,4.973l3.564,6.79h-3.917l-3.179-6.192h-2.59v6.192h-3.548v-17.469ZM36.351,83.388c2.032,0,3.023-.87,3.023-2.602,0-1.74-.991-2.687-3.04-2.687h-2.393v5.289h2.409Z"/>
          <path class="cls-4" d="M52.632,92.787c-4.474,0-7.857-3.284-7.857-8.973s3.384-8.973,7.857-8.973c4.449,0,7.858,3.258,7.858,8.973s-3.409,8.973-7.858,8.973ZM52.632,78.107c-2.581,0-4.261,2.005-4.261,5.707s1.68,5.707,4.261,5.707,4.261-2.005,4.261-5.707-1.688-5.707-4.261-5.707Z"/>
          <path class="cls-4" d="M62.644,75.08h11.11v3.045h-7.562v4.163h6.825v3.045h-6.825v7.216h-3.548v-17.469Z"/>
          <path class="cls-4" d="M75.672,75.08h11.308v3.045h-7.76v4.163h7.179v3.045h-7.179v4.171h7.793v3.045h-11.341v-17.469Z"/>
          <path class="cls-4" d="M95.575,77.929c-1.737,0-2.696.827-2.696,1.953-.024,1.254,1.196,1.817,2.655,2.167l1.507.375c2.918.682,5.023,2.226,5.031,5.135-.008,3.199-2.417,5.237-6.514,5.237-4.072,0-6.67-1.954-6.761-5.732h3.434c.115,1.749,1.442,2.635,3.286,2.635,1.803,0,2.966-.87,2.975-2.149-.009-1.177-1.024-1.723-2.852-2.184l-1.827-.478c-2.836-.708-4.581-2.184-4.572-4.759-.017-3.173,2.679-5.289,6.358-5.289,3.736,0,6.194,2.149,6.243,5.263h-3.4c-.131-1.373-1.172-2.175-2.867-2.175Z"/>
          <path class="cls-4" d="M110.218,77.929c-1.737,0-2.696.827-2.696,1.953-.024,1.254,1.196,1.817,2.655,2.167l1.507.375c2.918.682,5.023,2.226,5.031,5.135-.008,3.199-2.417,5.237-6.514,5.237-4.072,0-6.67-1.954-6.761-5.732h3.434c.115,1.749,1.442,2.635,3.286,2.635,1.803,0,2.966-.87,2.975-2.149-.009-1.177-1.024-1.723-2.852-2.184l-1.827-.478c-2.836-.708-4.581-2.184-4.572-4.759-.017-3.173,2.679-5.289,6.358-5.289,3.736,0,6.194,2.149,6.243,5.263h-3.4c-.131-1.373-1.172-2.175-2.867-2.175Z"/>
          <path class="cls-4" d="M122.172,92.548h-3.548v-17.469h3.548v17.469Z"/>
          <path class="cls-4" d="M132.195,92.787c-4.474,0-7.857-3.284-7.857-8.973s3.384-8.973,7.857-8.973c4.449,0,7.858,3.258,7.858,8.973s-3.409,8.973-7.858,8.973ZM132.195,78.107c-2.581,0-4.261,2.005-4.261,5.707s1.68,5.707,4.261,5.707,4.261-2.005,4.261-5.707-1.688-5.707-4.261-5.707Z"/>
          <path class="cls-4" d="M156.243,92.548h-3.064l-7.301-10.995h-.123v10.995h-3.548v-17.469h3.114l7.243,10.986h.147v-10.986h3.531v17.469Z"/>
          <path class="cls-4" d="M157.791,92.548l5.794-17.469h4.572l5.784,17.469h-3.802l-1.245-3.983h-6.056l-1.245,3.983h-3.803ZM168.001,85.682l-2.064-6.611h-.132l-2.064,6.611h4.261Z"/>
          <path class="cls-4" d="M175.488,75.08h3.548v14.424h7.194v3.045h-10.742v-17.469Z"/>
        </g>
        <g>
          <path class="cls-4" d="M22.287,126.892c-2.149,0-3.505,1.1-3.505,2.584-.009,1.672,1.808,2.312,3.173,2.661l1.706.444c2.218.546,5.023,1.766,5.023,4.913,0,2.959-2.362,5.118-6.465,5.118-3.916,0-6.363-1.953-6.534-5.118h2.645c.153,1.902,1.842,2.806,3.872,2.806,2.243,0,3.872-1.126,3.872-2.832,0-1.552-1.441-2.167-3.309-2.661l-2.064-.563c-2.807-.759-4.547-2.184-4.547-4.615,0-3.011,2.688-5.015,6.193-5.015,3.548,0,6.021,2.03,6.099,4.828h-2.542c-.188-1.612-1.612-2.55-3.617-2.55Z"/>
          <path class="cls-4" d="M30.923,135.856c0-4.026,2.405-6.807,6.056-6.807,2.969,0,5.8,1.851,5.8,6.584v.904h-9.313c.067,2.525,1.535,3.941,3.719,3.941,1.45,0,2.559-.631,3.02-1.868l2.414.435c-.58,2.132-2.602,3.54-5.459,3.54-3.864,0-6.235-2.662-6.235-6.73ZM40.279,134.628c-.008-2.004-1.305-3.472-3.283-3.472-2.073,0-3.421,1.612-3.523,3.472h6.807Z"/>
          <path class="cls-4" d="M44.914,135.831c0-4,2.389-6.781,6.082-6.781,2.977,0,5.135,1.757,5.407,4.401h-2.481c-.273-1.228-1.263-2.251-2.884-2.251-2.132,0-3.548,1.766-3.548,4.572,0,2.857,1.391,4.657,3.548,4.657,1.459,0,2.56-.836,2.884-2.252h2.481c-.281,2.55-2.285,4.41-5.382,4.41-3.805,0-6.107-2.807-6.107-6.756Z"/>
          <path class="cls-4" d="M67.324,129.22h2.56v13.102h-2.508v-2.269h-.137c-.605,1.399-1.944,2.439-3.915,2.439-2.517,0-4.299-1.688-4.299-4.938v-8.333h2.55v8.026c0,1.783,1.092,2.926,2.67,2.926,1.434,0,3.088-1.058,3.079-3.284v-7.668Z"/>
          <path class="cls-4" d="M73.187,129.22h2.465v2.081h.137c.478-1.407,1.791-2.277,3.326-2.277.324,0,.827.026,1.084.06v2.44c-.205-.06-.803-.154-1.331-.154-1.809,0-3.131,1.237-3.131,2.951v8.001h-2.55v-13.102Z"/>
          <path class="cls-4" d="M81.232,135.856c0-4.026,2.405-6.807,6.057-6.807,2.968,0,5.8,1.851,5.8,6.584v.904h-9.314c.068,2.525,1.535,3.941,3.719,3.941,1.45,0,2.56-.631,3.02-1.868l2.414.435c-.58,2.132-2.602,3.54-5.459,3.54-3.864,0-6.235-2.662-6.235-6.73ZM90.59,134.628c-.009-2.004-1.306-3.472-3.284-3.472-2.072,0-3.42,1.612-3.522,3.472h6.807Z"/>
          <path class="cls-4" d="M30.476,168.172h-2.422l-8.88-12.812h-.162v12.812h-2.636v-17.469h2.44l8.888,12.829h.162v-12.829h2.609v17.469Z"/>
          <path class="cls-4" d="M33.406,161.707c0-4.026,2.405-6.807,6.056-6.807,2.969,0,5.8,1.851,5.8,6.584v.904h-9.313c.067,2.525,1.535,3.941,3.719,3.941,1.45,0,2.559-.631,3.02-1.868l2.414.435c-.58,2.132-2.602,3.54-5.459,3.54-3.864,0-6.235-2.662-6.235-6.73ZM42.763,160.479c-.008-2.004-1.305-3.472-3.283-3.472-2.073,0-3.421,1.612-3.523,3.472h6.807Z"/>
          <path class="cls-4" d="M54.102,157.118h-2.687v7.208c0,1.476.741,1.749,1.569,1.749.409,0,.725-.077.896-.111l.46,2.106c-.298.111-.844.265-1.654.273-2.013.043-3.83-1.109-3.821-3.488v-7.737h-1.919v-2.047h1.919v-3.139h2.551v3.139h2.687v2.047Z"/>
          <path class="cls-4" d="M55.783,155.071h2.636l2.567,9.622h.128l2.576-9.622h2.636l2.559,9.579h.128l2.551-9.579h2.635l-3.847,13.102h-2.602l-2.661-9.459h-.196l-2.661,9.459h-2.593l-3.855-13.102Z"/>
          <path class="cls-4" d="M75.509,161.681c0-4.077,2.414-6.781,6.106-6.781s6.107,2.704,6.107,6.781c0,4.052-2.414,6.756-6.107,6.756s-6.106-2.704-6.106-6.756ZM85.147,161.673c0-2.508-1.126-4.64-3.523-4.64-2.414,0-3.54,2.132-3.54,4.64s1.126,4.623,3.54,4.623c2.397,0,3.523-2.107,3.523-4.623Z"/>
          <path class="cls-4" d="M90.447,155.071h2.465v2.081h.137c.478-1.407,1.791-2.277,3.326-2.277.324,0,.827.026,1.084.06v2.44c-.205-.06-.803-.154-1.331-.154-1.809,0-3.131,1.237-3.131,2.951v8.001h-2.55v-13.102Z"/>
          <path class="cls-4" d="M99.559,150.704h2.55v9.912h.223l5.22-5.544h3.054l-5.306,5.621,5.664,7.48h-3.131l-4.452-5.919-1.271,1.271v4.648h-2.55v-17.469Z"/>
          <path class="cls-4" d="M112.483,151.531c0-.835.726-1.526,1.612-1.526.879,0,1.612.691,1.612,1.526s-.733,1.519-1.612,1.519c-.887,0-1.612-.683-1.612-1.519ZM112.808,155.071h2.551v13.102h-2.551v-13.102Z"/>
          <path class="cls-4" d="M121.219,168.172h-2.551v-13.102h2.448v2.132h.162c.605-1.39,1.894-2.303,3.864-2.303,2.678,0,4.461,1.697,4.461,4.938v8.333h-2.551v-8.026c0-1.902-1.049-3.037-2.78-3.037-1.774,0-3.054,1.194-3.054,3.284v7.779Z"/>
          <path class="cls-4" d="M132.822,170.39l2.192-.904c.452.75,1.279,1.817,3.403,1.817,1.937,0,3.344-.887,3.344-2.943v-2.576h-.162c-.461.836-1.391,2.192-3.796,2.192-3.096,0-5.476-2.226-5.476-6.406s2.328-6.67,5.493-6.67c2.439,0,3.343,1.484,3.795,2.294h.188v-2.124h2.499v13.392c0,3.369-2.576,4.896-5.911,4.896-3.131,0-4.879-1.365-5.57-2.968ZM141.787,161.536c0-2.652-1.194-4.469-3.42-4.469-2.304,0-3.464,1.953-3.464,4.469,0,2.576,1.187,4.325,3.464,4.325,2.2,0,3.42-1.621,3.42-4.325Z"/>
        </g>
        <g>
          <g>
            <rect class="cls-4" x="51.286" y="15.953" width="8.322" height="5.329"/>
            <rect class="cls-4" x="40.642" y="23.604" width="8.322" height="5.329"/>
            <rect class="cls-4" x="61.931" y="23.604" width="8.322" height="5.329"/>
            <rect class="cls-4" x="51.286" y="31.255" width="8.322" height="5.329"/>
            <path class="cls-4" d="M65.757,15.953c2.483,0,4.496,2.013,4.496,4.496v.832h-8.322v-5.329h3.826Z"/>
            <path class="cls-4" d="M61.931,36.584v-5.329h8.322v.832c0,2.483-2.013,4.496-4.496,4.496h-3.826Z"/>
            <path class="cls-4" d="M40.642,20.449c0-2.483,2.013-4.496,4.496-4.496h3.826v5.329h-8.322v-.832Z"/>
            <path class="cls-4" d="M45.138,36.584c-2.483,0-4.496-2.013-4.496-4.496v-.832h8.322v5.329h-3.826Z"/>
          </g>
          <g>
            <path class="cls-4" d="M96.923,21.506c0-3.067-2.487-5.554-5.554-5.554h-17.173v20.631h5.037v-7.336h11.242c.629,0,1.14.51,1.14,1.14v6.196h5.037v-6.196c0-1.121-.576-2.106-1.448-2.678,1.059-1.011,1.72-2.436,1.72-4.016v-2.187ZM91.887,23.677c0,.629-.51,1.14-1.14,1.14h-11.514v-4.433h11.514c.629,0,1.14.51,1.14,1.14v2.153Z"/>
            <path class="cls-4" d="M148.19,15.952h-17.206s-.005,0-.005,0v20.631h5.037v-16.2h11.552c.629,0,1.14.51,1.14,1.14v15.06h5.037v-15.077c0-3.067-2.487-5.554-5.554-5.554Z"/>
            <polygon class="cls-4" points="122.037 36.583 127.074 36.583 127.074 26.268 127.074 15.952 122.037 15.952 122.037 26.268 122.037 36.583"/>
            <polygon class="cls-4" points="119.485 15.952 108.378 15.952 99.168 15.952 99.168 20.384 104.989 20.384 104.989 36.583 110.026 36.583 110.026 20.384 119.485 20.384 119.485 15.952"/>
            <polygon class="cls-4" points="200.849 15.952 180.531 15.952 180.531 20.384 186.353 20.384 186.353 36.583 191.389 36.583 191.389 20.384 200.849 20.384 200.849 15.952"/>
            <polygon class="cls-4" points="162.69 32.152 162.69 28.45 175.768 28.45 175.768 24.019 162.69 24.019 162.69 20.384 177.971 20.384 177.971 15.952 157.653 15.952 157.653 36.583 178.246 36.583 178.246 32.152 162.69 32.152"/>
            <polygon class="cls-4" points="38.013 20.384 38.013 15.953 15.908 15.953 15.908 26.268 15.908 36.584 20.944 36.584 20.944 29.248 35.536 29.248 35.536 24.817 20.944 24.817 20.944 20.384 38.013 20.384"/>
          </g>
        </g>
      </g>
    </g>
  </g>
</svg>