<?xml version="1.0" encoding="UTF-8"?>
<svg xmlns="http://www.w3.org/2000/svg" width="216" height="216" xmlns:xlink="http://www.w3.org/1999/xlink" viewBox="0 0 216 216">
  <defs>
    <style>
      .cls-1 {
        mix-blend-mode: multiply;
        opacity: .2;
      }

      .cls-2 {
        fill: url(#linear-gradient);
      }

      .cls-3 {
        isolation: isolate;
      }

      .cls-4 {
        fill: #fff;
      }
    </style>
    <linearGradient id="linear-gradient" x1="128.241" y1="222.795" x2="86.274" y2="-15.212" gradientUnits="userSpaceOnUse">
      <stop offset="0" stop-color="#da291c"/>
      <stop offset=".129" stop-color="#cb261a"/>
      <stop offset=".509" stop-color="#a41f15"/>
      <stop offset=".813" stop-color="#8b1a12"/>
      <stop offset="1" stop-color="#831911"/>
    </linearGradient>
  </defs>
  <g class="cls-3">
    <g id="art_outlined" data-name="art outlined">
      <g>
        <path class="cls-2" d="M0,216V0h216v162c0,29.823-24.177,54-54,54H0Z"/>
        <g class="cls-1">
          <rect x="110.475" y="104.322" width="30.789" height="19.714"/>
          <rect x="71.093" y="132.629" width="30.789" height="19.714"/>
          <rect x="149.858" y="132.629" width="30.789" height="19.714"/>
          <rect x="110.475" y="160.937" width="30.789" height="19.714"/>
          <path d="M164.012,104.322c9.187,0,16.635,7.448,16.635,16.635v3.079h-30.789v-19.714h14.154Z"/>
          <path d="M149.858,180.651v-19.714h30.789v3.079c0,9.187-7.448,16.635-16.635,16.635h-14.154Z"/>
          <path d="M71.093,120.957c0-9.187,7.448-16.635,16.635-16.635h14.154v19.714h-30.789v-3.079Z"/>
          <path d="M87.728,180.651c-9.187,0-16.635-7.448-16.635-16.635v-3.079h30.789v19.714h-14.154Z"/>
        </g>
        <rect class="cls-4" y="109.184" width="89.296" height="3.045"/>
        <g>
          <path class="cls-4" d="M27.652,55.345c-.281-1.919-1.739-3.088-3.762-3.088-2.703,0-4.478,2.073-4.478,5.707,0,3.736,1.8,5.707,4.452,5.707,1.971,0,3.438-1.075,3.787-2.943l3.736.017c-.401,3.216-3.104,6.192-7.583,6.192-4.674,0-8.137-3.275-8.137-8.973s3.522-8.973,8.137-8.973c4.043,0,7.097,2.32,7.583,6.354h-3.736Z"/>
          <path class="cls-4" d="M33.926,49.229h11.771v3.045h-8.078v4.163h7.473v3.045h-7.473v4.171h8.112v3.045h-11.806v-17.469Z"/>
          <path class="cls-4" d="M48.523,49.229h6.892c3.967,0,6.261,2.235,6.261,5.707,0,2.388-1.1,4.12-3.087,4.973l3.71,6.79h-4.077l-3.31-6.192h-2.695v6.192h-3.693v-17.469ZM54.725,57.537c2.115,0,3.147-.87,3.147-2.602,0-1.74-1.032-2.687-3.165-2.687h-2.49v5.289h2.508Z"/>
          <path class="cls-4" d="M63.505,49.229h14.347v3.045h-5.349v14.424h-3.65v-14.424h-5.348v-3.045Z"/>
          <path class="cls-4" d="M83.8,66.698h-3.693v-17.469h3.693v17.469Z"/>
          <path class="cls-4" d="M86.727,49.229h11.566v3.045h-7.873v4.163h7.105v3.045h-7.105v7.216h-3.693v-17.469Z"/>
          <path class="cls-4" d="M104.352,66.698h-3.693v-17.469h3.693v17.469Z"/>
          <path class="cls-4" d="M107.278,49.229h11.771v3.045h-8.077v4.163h7.472v3.045h-7.472v4.171h8.111v3.045h-11.805v-17.469Z"/>
          <path class="cls-4" d="M121.875,66.698v-17.469h6.244c5.271,0,8.495,3.275,8.495,8.717s-3.224,8.751-8.546,8.751h-6.193ZM127.914,63.533c3.284,0,5.016-1.689,5.016-5.587s-1.731-5.553-5.007-5.553h-2.354v11.14h2.346Z"/>
          <path class="cls-4" d="M15.916,75.08h6.62c3.811,0,6.015,2.448,6.015,5.919,0,3.489-2.245,5.886-6.104,5.886h-2.982v5.664h-3.548v-17.469ZM21.873,83.925c2.032,0,3.023-1.194,3.023-2.926s-.991-2.9-3.04-2.9h-2.393v5.826h2.409Z"/>
          <path class="cls-4" d="M30.394,75.08h6.621c3.811,0,6.015,2.235,6.015,5.707,0,2.388-1.058,4.12-2.967,4.973l3.564,6.79h-3.917l-3.179-6.192h-2.59v6.192h-3.548v-17.469ZM36.351,83.388c2.032,0,3.023-.87,3.023-2.602,0-1.74-.991-2.687-3.04-2.687h-2.393v5.289h2.409Z"/>
          <path class="cls-4" d="M52.632,92.787c-4.474,0-7.857-3.284-7.857-8.973s3.384-8.973,7.857-8.973c4.449,0,7.858,3.258,7.858,8.973s-3.409,8.973-7.858,8.973ZM52.632,78.107c-2.581,0-4.261,2.005-4.261,5.707s1.68,5.707,4.261,5.707,4.261-2.005,4.261-5.707-1.688-5.707-4.261-5.707Z"/>
          <path class="cls-4" d="M62.644,75.08h11.11v3.045h-7.562v4.163h6.825v3.045h-6.825v7.216h-3.548v-17.469Z"/>
          <path class="cls-4" d="M75.672,75.08h11.308v3.045h-7.76v4.163h7.179v3.045h-7.179v4.171h7.793v3.045h-11.341v-17.469Z"/>
          <path class="cls-4" d="M95.575,77.929c-1.737,0-2.696.827-2.696,1.953-.024,1.254,1.196,1.817,2.655,2.167l1.507.375c2.918.682,5.023,2.226,5.031,5.135-.008,3.199-2.417,5.237-6.514,5.237-4.072,0-6.67-1.954-6.761-5.732h3.434c.115,1.749,1.442,2.635,3.286,2.635,1.803,0,2.966-.87,2.975-2.149-.009-1.177-1.024-1.723-2.852-2.184l-1.827-.478c-2.836-.708-4.581-2.184-4.572-4.759-.017-3.173,2.679-5.289,6.358-5.289,3.736,0,6.194,2.149,6.243,5.263h-3.4c-.131-1.373-1.172-2.175-2.867-2.175Z"/>
          <path class="cls-4" d="M110.218,77.929c-1.737,0-2.696.827-2.696,1.953-.024,1.254,1.196,1.817,2.655,2.167l1.507.375c2.918.682,5.023,2.226,5.031,5.135-.008,3.199-2.417,5.237-6.514,5.237-4.072,0-6.67-1.954-6.761-5.732h3.434c.115,1.749,1.442,2.635,3.286,2.635,1.803,0,2.966-.87,2.975-2.149-.009-1.177-1.024-1.723-2.852-2.184l-1.827-.478c-2.836-.708-4.581-2.184-4.572-4.759-.017-3.173,2.679-5.289,6.358-5.289,3.736,0,6.194,2.149,6.243,5.263h-3.4c-.131-1.373-1.172-2.175-2.867-2.175Z"/>
          <path class="cls-4" d="M122.172,92.548h-3.548v-17.469h3.548v17.469Z"/>
          <path class="cls-4" d="M132.195,92.787c-4.474,0-7.857-3.284-7.857-8.973s3.384-8.973,7.857-8.973c4.449,0,7.858,3.258,7.858,8.973s-3.409,8.973-7.858,8.973ZM132.195,78.107c-2.581,0-4.261,2.005-4.261,5.707s1.68,5.707,4.261,5.707,4.261-2.005,4.261-5.707-1.688-5.707-4.261-5.707Z"/>
          <path class="cls-4" d="M156.243,92.548h-3.064l-7.301-10.995h-.123v10.995h-3.548v-17.469h3.114l7.243,10.986h.147v-10.986h3.531v17.469Z"/>
          <path class="cls-4" d="M157.791,92.548l5.794-17.469h4.572l5.784,17.469h-3.802l-1.245-3.983h-6.056l-1.245,3.983h-3.803ZM168.001,85.682l-2.064-6.611h-.132l-2.064,6.611h4.261Z"/>
          <path class="cls-4" d="M175.488,75.08h3.548v14.424h7.194v3.045h-10.742v-17.469Z"/>
        </g>
        <g>
          <path class="cls-4" d="M22.287,126.892c-2.149,0-3.505,1.1-3.505,2.584-.009,1.672,1.808,2.312,3.173,2.661l1.706.444c2.218.546,5.023,1.766,5.023,4.913,0,2.959-2.362,5.118-6.465,5.118-3.916,0-6.363-1.953-6.534-5.118h2.645c.153,1.902,1.842,2.806,3.872,2.806,2.243,0,3.872-1.126,3.872-2.832,0-1.552-1.441-2.167-3.309-2.661l-2.064-.563c-2.807-.759-4.547-2.184-4.547-4.615,0-3.011,2.688-5.015,6.193-5.015,3.548,0,6.021,2.03,6.099,4.828h-2.542c-.188-1.612-1.612-2.55-3.617-2.55Z"/>
          <path class="cls-4" d="M30.258,142.322l6.286-17.469h3.045l6.286,17.469h-2.798l-1.595-4.623h-6.823l-1.604,4.623h-2.798ZM40.715,135.481l-2.576-7.455h-.137l-2.575,7.455h5.288Z"/>
          <path class="cls-4" d="M54.051,126.892c-2.149,0-3.506,1.1-3.506,2.584-.009,1.672,1.809,2.312,3.173,2.661l1.706.444c2.218.546,5.024,1.766,5.024,4.913,0,2.959-2.363,5.118-6.466,5.118-3.915,0-6.363-1.953-6.534-5.118h2.645c.153,1.902,1.843,2.806,3.873,2.806,2.243,0,3.872-1.126,3.872-2.832,0-1.552-1.441-2.167-3.31-2.661l-2.064-.563c-2.806-.759-4.546-2.184-4.546-4.615,0-3.011,2.687-5.015,6.192-5.015,3.549,0,6.022,2.03,6.099,4.828h-2.542c-.188-1.612-1.612-2.55-3.616-2.55Z"/>
          <path class="cls-4" d="M63.479,124.853h10.952v2.269h-8.316v5.322h7.745v2.26h-7.745v5.348h8.419v2.269h-11.055v-17.469Z"/>
        </g>
        <g>
          <g>
            <rect class="cls-4" x="51.286" y="15.953" width="8.322" height="5.329"/>
            <rect class="cls-4" x="40.642" y="23.604" width="8.322" height="5.329"/>
            <rect class="cls-4" x="61.931" y="23.604" width="8.322" height="5.329"/>
            <rect class="cls-4" x="51.286" y="31.255" width="8.322" height="5.329"/>
            <path class="cls-4" d="M65.757,15.953c2.483,0,4.496,2.013,4.496,4.496v.832h-8.322v-5.329h3.826Z"/>
            <path class="cls-4" d="M61.931,36.584v-5.329h8.322v.832c0,2.483-2.013,4.496-4.496,4.496h-3.826Z"/>
            <path class="cls-4" d="M40.642,20.449c0-2.483,2.013-4.496,4.496-4.496h3.826v5.329h-8.322v-.832Z"/>
            <path class="cls-4" d="M45.138,36.584c-2.483,0-4.496-2.013-4.496-4.496v-.832h8.322v5.329h-3.826Z"/>
          </g>
          <g>
            <path class="cls-4" d="M96.923,21.506c0-3.067-2.487-5.554-5.554-5.554h-17.173v20.631h5.037v-7.336h11.242c.629,0,1.14.51,1.14,1.14v6.196h5.037v-6.196c0-1.121-.576-2.106-1.448-2.678,1.059-1.011,1.72-2.436,1.72-4.016v-2.187ZM91.887,23.677c0,.629-.51,1.14-1.14,1.14h-11.514v-4.433h11.514c.629,0,1.14.51,1.14,1.14v2.153Z"/>
            <path class="cls-4" d="M148.19,15.952h-17.206s-.005,0-.005,0v20.631h5.037v-16.2h11.552c.629,0,1.14.51,1.14,1.14v15.06h5.037v-15.077c0-3.067-2.487-5.554-5.554-5.554Z"/>
            <polygon class="cls-4" points="122.037 36.583 127.074 36.583 127.074 26.268 127.074 15.952 122.037 15.952 122.037 26.268 122.037 36.583"/>
            <polygon class="cls-4" points="119.485 15.952 108.378 15.952 99.168 15.952 99.168 20.384 104.989 20.384 104.989 36.583 110.026 36.583 110.026 20.384 119.485 20.384 119.485 15.952"/>
            <polygon class="cls-4" points="200.849 15.952 180.531 15.952 180.531 20.384 186.353 20.384 186.353 36.583 191.389 36.583 191.389 20.384 200.849 20.384 200.849 15.952"/>
            <polygon class="cls-4" points="162.69 32.152 162.69 28.45 175.768 28.45 175.768 24.019 162.69 24.019 162.69 20.384 177.971 20.384 177.971 15.952 157.653 15.952 157.653 36.583 178.246 36.583 178.246 32.152 162.69 32.152"/>
            <polygon class="cls-4" points="38.013 20.384 38.013 15.953 15.908 15.953 15.908 26.268 15.908 36.584 20.944 36.584 20.944 29.248 35.536 29.248 35.536 24.817 20.944 24.817 20.944 20.384 38.013 20.384"/>
          </g>
        </g>
      </g>
    </g>
  </g>
</svg>